<mxfile host="app.diagrams.net" modified="2020-08-17T07:27:20.134Z" agent="5.0 (Windows NT 10.0; Win64; x64) AppleWebKit/537.36 (KHTML, like Gecko) Chrome/84.0.4147.125 Safari/537.36" etag="IuOUIgILXKGP6WF5HcvP" version="13.6.2" type="github">
  <diagram id="2VJUGr-SOvqhdHHfwVNG" name="Page-1">
    <mxGraphModel dx="1185" dy="635" grid="1" gridSize="10" guides="1" tooltips="1" connect="1" arrows="1" fold="1" page="1" pageScale="1" pageWidth="850" pageHeight="1100" math="0" shadow="0" extFonts="GT Walsheim^https://docs.kontent.ai/fonts/GT-Walsheim-Regular.woff">
      <root>
        <mxCell id="0" />
        <mxCell id="1" parent="0" />
        <mxCell id="lgj1nc-UiX9Fw6fF2aE0-107" value="" style="rounded=0;whiteSpace=wrap;html=1;strokeWidth=1;fontFamily=GT Walsheim;fontColor=#F05A22;fillColor=none;strokeColor=#F05A22;" vertex="1" parent="1">
          <mxGeometry x="450" y="84" width="120" height="146" as="geometry" />
        </mxCell>
        <mxCell id="lgj1nc-UiX9Fw6fF2aE0-109" value="" style="rounded=0;whiteSpace=wrap;html=1;strokeWidth=1;fontFamily=GT Walsheim;fontColor=#F05A22;fillColor=none;strokeColor=#F05A22;" vertex="1" parent="1">
          <mxGeometry x="310" y="194" width="120" height="146" as="geometry" />
        </mxCell>
        <mxCell id="lgj1nc-UiX9Fw6fF2aE0-105" value="" style="rounded=0;whiteSpace=wrap;html=1;strokeWidth=1;fontFamily=GT Walsheim;fontColor=#F05A22;fillColor=none;strokeColor=#F05A22;" vertex="1" parent="1">
          <mxGeometry x="320" y="14" width="120" height="146" as="geometry" />
        </mxCell>
        <mxCell id="lgj1nc-UiX9Fw6fF2aE0-102" value="" style="rounded=0;whiteSpace=wrap;html=1;strokeWidth=1;fontFamily=GT Walsheim;fontColor=#F05A22;fillColor=none;strokeColor=#F05A22;" vertex="1" parent="1">
          <mxGeometry x="82" y="86" width="125" height="224" as="geometry" />
        </mxCell>
        <mxCell id="lgj1nc-UiX9Fw6fF2aE0-24" style="edgeStyle=orthogonalEdgeStyle;rounded=0;orthogonalLoop=1;jettySize=auto;html=1;entryX=0;entryY=0.5;entryDx=0;entryDy=0;endArrow=none;endFill=0;" edge="1" parent="1" source="lgj1nc-UiX9Fw6fF2aE0-19" target="lgj1nc-UiX9Fw6fF2aE0-21">
          <mxGeometry relative="1" as="geometry">
            <Array as="points">
              <mxPoint x="75" y="110" />
            </Array>
          </mxGeometry>
        </mxCell>
        <mxCell id="lgj1nc-UiX9Fw6fF2aE0-25" style="edgeStyle=orthogonalEdgeStyle;rounded=0;orthogonalLoop=1;jettySize=auto;html=1;entryX=0;entryY=0.5;entryDx=0;entryDy=0;endArrow=none;endFill=0;" edge="1" parent="1" source="lgj1nc-UiX9Fw6fF2aE0-19" target="lgj1nc-UiX9Fw6fF2aE0-20">
          <mxGeometry relative="1" as="geometry">
            <Array as="points">
              <mxPoint x="75" y="160" />
            </Array>
          </mxGeometry>
        </mxCell>
        <mxCell id="lgj1nc-UiX9Fw6fF2aE0-26" style="edgeStyle=orthogonalEdgeStyle;rounded=0;orthogonalLoop=1;jettySize=auto;html=1;entryX=0;entryY=0.5;entryDx=0;entryDy=0;endArrow=none;endFill=0;" edge="1" parent="1" source="lgj1nc-UiX9Fw6fF2aE0-19" target="lgj1nc-UiX9Fw6fF2aE0-22">
          <mxGeometry relative="1" as="geometry">
            <Array as="points">
              <mxPoint x="75" y="210" />
            </Array>
          </mxGeometry>
        </mxCell>
        <mxCell id="lgj1nc-UiX9Fw6fF2aE0-27" style="edgeStyle=orthogonalEdgeStyle;rounded=0;orthogonalLoop=1;jettySize=auto;html=1;entryX=0;entryY=0.5;entryDx=0;entryDy=0;endArrow=none;endFill=0;" edge="1" parent="1" source="lgj1nc-UiX9Fw6fF2aE0-19" target="lgj1nc-UiX9Fw6fF2aE0-23">
          <mxGeometry relative="1" as="geometry">
            <Array as="points">
              <mxPoint x="75" y="260" />
            </Array>
          </mxGeometry>
        </mxCell>
        <mxCell id="lgj1nc-UiX9Fw6fF2aE0-19" value="Homepage" style="rounded=1;whiteSpace=wrap;html=1;fillColor=#F05A22;strokeColor=none;fontStyle=0;perimeterSpacing=0;shadow=0;glass=0;comic=0;strokeWidth=2;fontFamily=GT Walsheim;fontSize=14;fontColor=#FFFFFF;" vertex="1" parent="1">
          <mxGeometry x="20" y="40" width="110" height="40" as="geometry" />
        </mxCell>
        <mxCell id="lgj1nc-UiX9Fw6fF2aE0-112" style="edgeStyle=orthogonalEdgeStyle;rounded=0;orthogonalLoop=1;jettySize=auto;html=1;entryX=0;entryY=0;entryDx=0;entryDy=50;entryPerimeter=0;endArrow=classic;endFill=1;strokeWidth=1;fontFamily=GT Walsheim;fontColor=#F05A22;" edge="1" parent="1" source="lgj1nc-UiX9Fw6fF2aE0-20" target="lgj1nc-UiX9Fw6fF2aE0-55">
          <mxGeometry relative="1" as="geometry">
            <Array as="points">
              <mxPoint x="270" y="160" />
              <mxPoint x="270" y="170" />
            </Array>
          </mxGeometry>
        </mxCell>
        <mxCell id="lgj1nc-UiX9Fw6fF2aE0-20" value="Articles" style="rounded=1;whiteSpace=wrap;html=1;fillColor=none;strokeColor=#000000;fontStyle=0;fontFamily=GT Walsheim;fontSize=14;strokeWidth=2;" vertex="1" parent="1">
          <mxGeometry x="90" y="140" width="110" height="40" as="geometry" />
        </mxCell>
        <mxCell id="lgj1nc-UiX9Fw6fF2aE0-111" style="edgeStyle=orthogonalEdgeStyle;rounded=0;orthogonalLoop=1;jettySize=auto;html=1;endArrow=classic;endFill=1;strokeWidth=1;fontFamily=GT Walsheim;fontColor=#F05A22;entryX=0;entryY=0;entryDx=0;entryDy=50;entryPerimeter=0;" edge="1" parent="1" source="lgj1nc-UiX9Fw6fF2aE0-21" target="lgj1nc-UiX9Fw6fF2aE0-28">
          <mxGeometry relative="1" as="geometry">
            <mxPoint x="270" y="110" as="targetPoint" />
            <Array as="points">
              <mxPoint x="270" y="110" />
              <mxPoint x="270" y="100" />
            </Array>
          </mxGeometry>
        </mxCell>
        <mxCell id="lgj1nc-UiX9Fw6fF2aE0-21" value="Blog posts" style="rounded=1;whiteSpace=wrap;html=1;fillColor=none;strokeColor=#000000;fontStyle=0;fontFamily=GT Walsheim;fontSize=14;strokeWidth=2;" vertex="1" parent="1">
          <mxGeometry x="90" y="90" width="110" height="40" as="geometry" />
        </mxCell>
        <mxCell id="lgj1nc-UiX9Fw6fF2aE0-116" style="edgeStyle=orthogonalEdgeStyle;rounded=0;orthogonalLoop=1;jettySize=auto;html=1;entryX=0;entryY=0.5;entryDx=0;entryDy=0;endArrow=classic;endFill=1;strokeWidth=1;fontFamily=GT Walsheim;fontColor=#000000;" edge="1" parent="1" source="lgj1nc-UiX9Fw6fF2aE0-22" target="lgj1nc-UiX9Fw6fF2aE0-114">
          <mxGeometry relative="1" as="geometry" />
        </mxCell>
        <mxCell id="lgj1nc-UiX9Fw6fF2aE0-22" value="Press" style="rounded=1;whiteSpace=wrap;html=1;fillColor=none;strokeColor=#000000;fontStyle=0;fontFamily=GT Walsheim;fontSize=14;strokeWidth=2;" vertex="1" parent="1">
          <mxGeometry x="90" y="190" width="110" height="40" as="geometry" />
        </mxCell>
        <mxCell id="lgj1nc-UiX9Fw6fF2aE0-117" style="edgeStyle=orthogonalEdgeStyle;rounded=0;orthogonalLoop=1;jettySize=auto;html=1;entryX=0;entryY=0.5;entryDx=0;entryDy=0;endArrow=classic;endFill=1;strokeWidth=1;fontFamily=GT Walsheim;fontColor=#000000;" edge="1" parent="1" source="lgj1nc-UiX9Fw6fF2aE0-23" target="lgj1nc-UiX9Fw6fF2aE0-115">
          <mxGeometry relative="1" as="geometry" />
        </mxCell>
        <mxCell id="lgj1nc-UiX9Fw6fF2aE0-23" value="Contact" style="rounded=1;whiteSpace=wrap;html=1;fillColor=none;strokeColor=#000000;fontStyle=0;fontFamily=GT Walsheim;fontSize=14;strokeWidth=2;" vertex="1" parent="1">
          <mxGeometry x="90" y="240" width="110" height="40" as="geometry" />
        </mxCell>
        <mxCell id="lgj1nc-UiX9Fw6fF2aE0-39" value="" style="group" vertex="1" connectable="0" parent="1">
          <mxGeometry x="330" y="50" width="80" height="90" as="geometry" />
        </mxCell>
        <mxCell id="lgj1nc-UiX9Fw6fF2aE0-28" value="" style="verticalLabelPosition=bottom;verticalAlign=top;html=1;shape=card;whiteSpace=wrap;size=20;arcSize=12;strokeWidth=2;" vertex="1" parent="lgj1nc-UiX9Fw6fF2aE0-39">
          <mxGeometry width="60" height="80" as="geometry" />
        </mxCell>
        <mxCell id="lgj1nc-UiX9Fw6fF2aE0-30" value="" style="endArrow=none;html=1;strokeWidth=6;exitX=0.25;exitY=0.2;exitDx=0;exitDy=0;exitPerimeter=0;" edge="1" parent="lgj1nc-UiX9Fw6fF2aE0-39">
          <mxGeometry width="50" height="50" relative="1" as="geometry">
            <mxPoint x="10" y="27" as="sourcePoint" />
            <mxPoint x="50" y="27" as="targetPoint" />
          </mxGeometry>
        </mxCell>
        <mxCell id="lgj1nc-UiX9Fw6fF2aE0-31" value="" style="endArrow=none;html=1;strokeWidth=2;exitX=0.25;exitY=0.2;exitDx=0;exitDy=0;exitPerimeter=0;" edge="1" parent="lgj1nc-UiX9Fw6fF2aE0-39">
          <mxGeometry width="50" height="50" relative="1" as="geometry">
            <mxPoint x="10" y="40" as="sourcePoint" />
            <mxPoint x="50" y="40" as="targetPoint" />
          </mxGeometry>
        </mxCell>
        <mxCell id="lgj1nc-UiX9Fw6fF2aE0-32" value="" style="endArrow=none;html=1;strokeWidth=2;exitX=0.25;exitY=0.2;exitDx=0;exitDy=0;exitPerimeter=0;" edge="1" parent="lgj1nc-UiX9Fw6fF2aE0-39">
          <mxGeometry width="50" height="50" relative="1" as="geometry">
            <mxPoint x="10" y="49.80000000000001" as="sourcePoint" />
            <mxPoint x="50" y="50" as="targetPoint" />
          </mxGeometry>
        </mxCell>
        <mxCell id="lgj1nc-UiX9Fw6fF2aE0-33" value="" style="endArrow=none;html=1;strokeWidth=2;exitX=0.25;exitY=0.2;exitDx=0;exitDy=0;exitPerimeter=0;" edge="1" parent="lgj1nc-UiX9Fw6fF2aE0-39">
          <mxGeometry width="50" height="50" relative="1" as="geometry">
            <mxPoint x="10" y="60" as="sourcePoint" />
            <mxPoint x="50" y="60" as="targetPoint" />
          </mxGeometry>
        </mxCell>
        <mxCell id="lgj1nc-UiX9Fw6fF2aE0-34" value="" style="endArrow=none;html=1;strokeWidth=2;exitX=0.25;exitY=0.2;exitDx=0;exitDy=0;exitPerimeter=0;" edge="1" parent="lgj1nc-UiX9Fw6fF2aE0-39">
          <mxGeometry width="50" height="50" relative="1" as="geometry">
            <mxPoint x="10" y="70" as="sourcePoint" />
            <mxPoint x="50" y="70" as="targetPoint" />
          </mxGeometry>
        </mxCell>
        <mxCell id="lgj1nc-UiX9Fw6fF2aE0-40" value="" style="group" vertex="1" connectable="0" parent="lgj1nc-UiX9Fw6fF2aE0-39">
          <mxGeometry x="20" y="10" width="60" height="80" as="geometry" />
        </mxCell>
        <mxCell id="lgj1nc-UiX9Fw6fF2aE0-41" value="" style="verticalLabelPosition=bottom;verticalAlign=top;html=1;shape=card;whiteSpace=wrap;size=20;arcSize=12;strokeWidth=2;" vertex="1" parent="lgj1nc-UiX9Fw6fF2aE0-40">
          <mxGeometry width="60" height="80" as="geometry" />
        </mxCell>
        <mxCell id="lgj1nc-UiX9Fw6fF2aE0-42" value="" style="endArrow=none;html=1;strokeWidth=6;exitX=0.25;exitY=0.2;exitDx=0;exitDy=0;exitPerimeter=0;" edge="1" parent="lgj1nc-UiX9Fw6fF2aE0-40">
          <mxGeometry width="50" height="50" relative="1" as="geometry">
            <mxPoint x="10" y="27" as="sourcePoint" />
            <mxPoint x="50" y="27" as="targetPoint" />
          </mxGeometry>
        </mxCell>
        <mxCell id="lgj1nc-UiX9Fw6fF2aE0-43" value="" style="endArrow=none;html=1;strokeWidth=2;exitX=0.25;exitY=0.2;exitDx=0;exitDy=0;exitPerimeter=0;" edge="1" parent="lgj1nc-UiX9Fw6fF2aE0-40">
          <mxGeometry width="50" height="50" relative="1" as="geometry">
            <mxPoint x="10" y="40" as="sourcePoint" />
            <mxPoint x="50" y="40" as="targetPoint" />
          </mxGeometry>
        </mxCell>
        <mxCell id="lgj1nc-UiX9Fw6fF2aE0-44" value="" style="endArrow=none;html=1;strokeWidth=2;exitX=0.25;exitY=0.2;exitDx=0;exitDy=0;exitPerimeter=0;" edge="1" parent="lgj1nc-UiX9Fw6fF2aE0-40">
          <mxGeometry width="50" height="50" relative="1" as="geometry">
            <mxPoint x="10" y="49.80000000000001" as="sourcePoint" />
            <mxPoint x="50" y="50" as="targetPoint" />
          </mxGeometry>
        </mxCell>
        <mxCell id="lgj1nc-UiX9Fw6fF2aE0-45" value="" style="endArrow=none;html=1;strokeWidth=2;exitX=0.25;exitY=0.2;exitDx=0;exitDy=0;exitPerimeter=0;" edge="1" parent="lgj1nc-UiX9Fw6fF2aE0-40">
          <mxGeometry width="50" height="50" relative="1" as="geometry">
            <mxPoint x="10" y="60" as="sourcePoint" />
            <mxPoint x="50" y="60" as="targetPoint" />
          </mxGeometry>
        </mxCell>
        <mxCell id="lgj1nc-UiX9Fw6fF2aE0-46" value="" style="endArrow=none;html=1;strokeWidth=2;exitX=0.25;exitY=0.2;exitDx=0;exitDy=0;exitPerimeter=0;" edge="1" parent="lgj1nc-UiX9Fw6fF2aE0-40">
          <mxGeometry width="50" height="50" relative="1" as="geometry">
            <mxPoint x="10" y="70" as="sourcePoint" />
            <mxPoint x="50" y="70" as="targetPoint" />
          </mxGeometry>
        </mxCell>
        <mxCell id="lgj1nc-UiX9Fw6fF2aE0-47" value="" style="group" vertex="1" connectable="0" parent="1">
          <mxGeometry x="370" y="70" width="60" height="80" as="geometry" />
        </mxCell>
        <mxCell id="lgj1nc-UiX9Fw6fF2aE0-48" value="" style="verticalLabelPosition=bottom;verticalAlign=top;html=1;shape=card;whiteSpace=wrap;size=20;arcSize=12;strokeWidth=2;" vertex="1" parent="lgj1nc-UiX9Fw6fF2aE0-47">
          <mxGeometry width="60" height="80" as="geometry" />
        </mxCell>
        <mxCell id="lgj1nc-UiX9Fw6fF2aE0-49" value="" style="endArrow=none;html=1;strokeWidth=6;exitX=0.25;exitY=0.2;exitDx=0;exitDy=0;exitPerimeter=0;" edge="1" parent="lgj1nc-UiX9Fw6fF2aE0-47">
          <mxGeometry width="50" height="50" relative="1" as="geometry">
            <mxPoint x="10" y="27" as="sourcePoint" />
            <mxPoint x="50" y="27" as="targetPoint" />
          </mxGeometry>
        </mxCell>
        <mxCell id="lgj1nc-UiX9Fw6fF2aE0-50" value="" style="endArrow=none;html=1;strokeWidth=2;exitX=0.25;exitY=0.2;exitDx=0;exitDy=0;exitPerimeter=0;" edge="1" parent="lgj1nc-UiX9Fw6fF2aE0-47">
          <mxGeometry width="50" height="50" relative="1" as="geometry">
            <mxPoint x="10" y="40" as="sourcePoint" />
            <mxPoint x="50" y="40" as="targetPoint" />
          </mxGeometry>
        </mxCell>
        <mxCell id="lgj1nc-UiX9Fw6fF2aE0-51" value="" style="endArrow=none;html=1;strokeWidth=2;exitX=0.25;exitY=0.2;exitDx=0;exitDy=0;exitPerimeter=0;" edge="1" parent="lgj1nc-UiX9Fw6fF2aE0-47">
          <mxGeometry width="50" height="50" relative="1" as="geometry">
            <mxPoint x="10" y="49.80000000000001" as="sourcePoint" />
            <mxPoint x="50" y="50" as="targetPoint" />
          </mxGeometry>
        </mxCell>
        <mxCell id="lgj1nc-UiX9Fw6fF2aE0-52" value="" style="endArrow=none;html=1;strokeWidth=2;exitX=0.25;exitY=0.2;exitDx=0;exitDy=0;exitPerimeter=0;" edge="1" parent="lgj1nc-UiX9Fw6fF2aE0-47">
          <mxGeometry width="50" height="50" relative="1" as="geometry">
            <mxPoint x="10" y="60" as="sourcePoint" />
            <mxPoint x="50" y="60" as="targetPoint" />
          </mxGeometry>
        </mxCell>
        <mxCell id="lgj1nc-UiX9Fw6fF2aE0-53" value="" style="endArrow=none;html=1;strokeWidth=2;exitX=0.25;exitY=0.2;exitDx=0;exitDy=0;exitPerimeter=0;" edge="1" parent="lgj1nc-UiX9Fw6fF2aE0-47">
          <mxGeometry width="50" height="50" relative="1" as="geometry">
            <mxPoint x="10" y="70" as="sourcePoint" />
            <mxPoint x="50" y="70" as="targetPoint" />
          </mxGeometry>
        </mxCell>
        <mxCell id="lgj1nc-UiX9Fw6fF2aE0-54" value="" style="group" vertex="1" connectable="0" parent="1">
          <mxGeometry x="460" y="120" width="80" height="90" as="geometry" />
        </mxCell>
        <mxCell id="lgj1nc-UiX9Fw6fF2aE0-55" value="" style="verticalLabelPosition=bottom;verticalAlign=top;html=1;shape=card;whiteSpace=wrap;size=20;arcSize=12;strokeWidth=2;" vertex="1" parent="lgj1nc-UiX9Fw6fF2aE0-54">
          <mxGeometry width="60" height="80" as="geometry" />
        </mxCell>
        <mxCell id="lgj1nc-UiX9Fw6fF2aE0-56" value="" style="endArrow=none;html=1;strokeWidth=6;exitX=0.25;exitY=0.2;exitDx=0;exitDy=0;exitPerimeter=0;" edge="1" parent="lgj1nc-UiX9Fw6fF2aE0-54">
          <mxGeometry width="50" height="50" relative="1" as="geometry">
            <mxPoint x="10" y="27" as="sourcePoint" />
            <mxPoint x="50" y="27" as="targetPoint" />
          </mxGeometry>
        </mxCell>
        <mxCell id="lgj1nc-UiX9Fw6fF2aE0-57" value="" style="endArrow=none;html=1;strokeWidth=2;exitX=0.25;exitY=0.2;exitDx=0;exitDy=0;exitPerimeter=0;" edge="1" parent="lgj1nc-UiX9Fw6fF2aE0-54">
          <mxGeometry width="50" height="50" relative="1" as="geometry">
            <mxPoint x="10" y="40" as="sourcePoint" />
            <mxPoint x="50" y="40" as="targetPoint" />
          </mxGeometry>
        </mxCell>
        <mxCell id="lgj1nc-UiX9Fw6fF2aE0-58" value="" style="endArrow=none;html=1;strokeWidth=2;exitX=0.25;exitY=0.2;exitDx=0;exitDy=0;exitPerimeter=0;" edge="1" parent="lgj1nc-UiX9Fw6fF2aE0-54">
          <mxGeometry width="50" height="50" relative="1" as="geometry">
            <mxPoint x="10" y="49.80000000000001" as="sourcePoint" />
            <mxPoint x="50" y="50" as="targetPoint" />
          </mxGeometry>
        </mxCell>
        <mxCell id="lgj1nc-UiX9Fw6fF2aE0-59" value="" style="endArrow=none;html=1;strokeWidth=2;exitX=0.25;exitY=0.2;exitDx=0;exitDy=0;exitPerimeter=0;" edge="1" parent="lgj1nc-UiX9Fw6fF2aE0-54">
          <mxGeometry width="50" height="50" relative="1" as="geometry">
            <mxPoint x="10" y="60" as="sourcePoint" />
            <mxPoint x="50" y="60" as="targetPoint" />
          </mxGeometry>
        </mxCell>
        <mxCell id="lgj1nc-UiX9Fw6fF2aE0-60" value="" style="endArrow=none;html=1;strokeWidth=2;exitX=0.25;exitY=0.2;exitDx=0;exitDy=0;exitPerimeter=0;" edge="1" parent="lgj1nc-UiX9Fw6fF2aE0-54">
          <mxGeometry width="50" height="50" relative="1" as="geometry">
            <mxPoint x="10" y="70" as="sourcePoint" />
            <mxPoint x="50" y="70" as="targetPoint" />
          </mxGeometry>
        </mxCell>
        <mxCell id="lgj1nc-UiX9Fw6fF2aE0-61" value="" style="group" vertex="1" connectable="0" parent="lgj1nc-UiX9Fw6fF2aE0-54">
          <mxGeometry x="20" y="10" width="60" height="80" as="geometry" />
        </mxCell>
        <mxCell id="lgj1nc-UiX9Fw6fF2aE0-62" value="" style="verticalLabelPosition=bottom;verticalAlign=top;html=1;shape=card;whiteSpace=wrap;size=20;arcSize=12;strokeWidth=2;" vertex="1" parent="lgj1nc-UiX9Fw6fF2aE0-61">
          <mxGeometry width="60" height="80" as="geometry" />
        </mxCell>
        <mxCell id="lgj1nc-UiX9Fw6fF2aE0-63" value="" style="endArrow=none;html=1;strokeWidth=6;exitX=0.25;exitY=0.2;exitDx=0;exitDy=0;exitPerimeter=0;" edge="1" parent="lgj1nc-UiX9Fw6fF2aE0-61">
          <mxGeometry width="50" height="50" relative="1" as="geometry">
            <mxPoint x="10" y="27" as="sourcePoint" />
            <mxPoint x="50" y="27" as="targetPoint" />
          </mxGeometry>
        </mxCell>
        <mxCell id="lgj1nc-UiX9Fw6fF2aE0-64" value="" style="endArrow=none;html=1;strokeWidth=2;exitX=0.25;exitY=0.2;exitDx=0;exitDy=0;exitPerimeter=0;" edge="1" parent="lgj1nc-UiX9Fw6fF2aE0-61">
          <mxGeometry width="50" height="50" relative="1" as="geometry">
            <mxPoint x="10" y="40" as="sourcePoint" />
            <mxPoint x="50" y="40" as="targetPoint" />
          </mxGeometry>
        </mxCell>
        <mxCell id="lgj1nc-UiX9Fw6fF2aE0-65" value="" style="endArrow=none;html=1;strokeWidth=2;exitX=0.25;exitY=0.2;exitDx=0;exitDy=0;exitPerimeter=0;" edge="1" parent="lgj1nc-UiX9Fw6fF2aE0-61">
          <mxGeometry width="50" height="50" relative="1" as="geometry">
            <mxPoint x="10" y="49.80000000000001" as="sourcePoint" />
            <mxPoint x="50" y="50" as="targetPoint" />
          </mxGeometry>
        </mxCell>
        <mxCell id="lgj1nc-UiX9Fw6fF2aE0-66" value="" style="endArrow=none;html=1;strokeWidth=2;exitX=0.25;exitY=0.2;exitDx=0;exitDy=0;exitPerimeter=0;" edge="1" parent="lgj1nc-UiX9Fw6fF2aE0-61">
          <mxGeometry width="50" height="50" relative="1" as="geometry">
            <mxPoint x="10" y="60" as="sourcePoint" />
            <mxPoint x="50" y="60" as="targetPoint" />
          </mxGeometry>
        </mxCell>
        <mxCell id="lgj1nc-UiX9Fw6fF2aE0-67" value="" style="endArrow=none;html=1;strokeWidth=2;exitX=0.25;exitY=0.2;exitDx=0;exitDy=0;exitPerimeter=0;" edge="1" parent="lgj1nc-UiX9Fw6fF2aE0-61">
          <mxGeometry width="50" height="50" relative="1" as="geometry">
            <mxPoint x="10" y="70" as="sourcePoint" />
            <mxPoint x="50" y="70" as="targetPoint" />
          </mxGeometry>
        </mxCell>
        <mxCell id="lgj1nc-UiX9Fw6fF2aE0-68" value="" style="group" vertex="1" connectable="0" parent="1">
          <mxGeometry x="500" y="140" width="60" height="80" as="geometry" />
        </mxCell>
        <mxCell id="lgj1nc-UiX9Fw6fF2aE0-69" value="" style="verticalLabelPosition=bottom;verticalAlign=top;html=1;shape=card;whiteSpace=wrap;size=20;arcSize=12;strokeWidth=2;" vertex="1" parent="lgj1nc-UiX9Fw6fF2aE0-68">
          <mxGeometry width="60" height="80" as="geometry" />
        </mxCell>
        <mxCell id="lgj1nc-UiX9Fw6fF2aE0-70" value="" style="endArrow=none;html=1;strokeWidth=6;exitX=0.25;exitY=0.2;exitDx=0;exitDy=0;exitPerimeter=0;" edge="1" parent="lgj1nc-UiX9Fw6fF2aE0-68">
          <mxGeometry width="50" height="50" relative="1" as="geometry">
            <mxPoint x="10" y="27" as="sourcePoint" />
            <mxPoint x="50" y="27" as="targetPoint" />
          </mxGeometry>
        </mxCell>
        <mxCell id="lgj1nc-UiX9Fw6fF2aE0-71" value="" style="endArrow=none;html=1;strokeWidth=2;exitX=0.25;exitY=0.2;exitDx=0;exitDy=0;exitPerimeter=0;" edge="1" parent="lgj1nc-UiX9Fw6fF2aE0-68">
          <mxGeometry width="50" height="50" relative="1" as="geometry">
            <mxPoint x="10" y="40" as="sourcePoint" />
            <mxPoint x="50" y="40" as="targetPoint" />
          </mxGeometry>
        </mxCell>
        <mxCell id="lgj1nc-UiX9Fw6fF2aE0-72" value="" style="endArrow=none;html=1;strokeWidth=2;exitX=0.25;exitY=0.2;exitDx=0;exitDy=0;exitPerimeter=0;" edge="1" parent="lgj1nc-UiX9Fw6fF2aE0-68">
          <mxGeometry width="50" height="50" relative="1" as="geometry">
            <mxPoint x="10" y="49.80000000000001" as="sourcePoint" />
            <mxPoint x="50" y="50" as="targetPoint" />
          </mxGeometry>
        </mxCell>
        <mxCell id="lgj1nc-UiX9Fw6fF2aE0-73" value="" style="endArrow=none;html=1;strokeWidth=2;exitX=0.25;exitY=0.2;exitDx=0;exitDy=0;exitPerimeter=0;" edge="1" parent="lgj1nc-UiX9Fw6fF2aE0-68">
          <mxGeometry width="50" height="50" relative="1" as="geometry">
            <mxPoint x="10" y="60" as="sourcePoint" />
            <mxPoint x="50" y="60" as="targetPoint" />
          </mxGeometry>
        </mxCell>
        <mxCell id="lgj1nc-UiX9Fw6fF2aE0-74" value="" style="endArrow=none;html=1;strokeWidth=2;exitX=0.25;exitY=0.2;exitDx=0;exitDy=0;exitPerimeter=0;" edge="1" parent="lgj1nc-UiX9Fw6fF2aE0-68">
          <mxGeometry width="50" height="50" relative="1" as="geometry">
            <mxPoint x="10" y="70" as="sourcePoint" />
            <mxPoint x="50" y="70" as="targetPoint" />
          </mxGeometry>
        </mxCell>
        <mxCell id="lgj1nc-UiX9Fw6fF2aE0-75" value="" style="group" vertex="1" connectable="0" parent="1">
          <mxGeometry x="320" y="230" width="80" height="90" as="geometry" />
        </mxCell>
        <mxCell id="lgj1nc-UiX9Fw6fF2aE0-76" value="" style="verticalLabelPosition=bottom;verticalAlign=top;html=1;shape=card;whiteSpace=wrap;size=20;arcSize=12;strokeWidth=2;" vertex="1" parent="lgj1nc-UiX9Fw6fF2aE0-75">
          <mxGeometry width="60" height="80" as="geometry" />
        </mxCell>
        <mxCell id="lgj1nc-UiX9Fw6fF2aE0-77" value="" style="endArrow=none;html=1;strokeWidth=6;exitX=0.25;exitY=0.2;exitDx=0;exitDy=0;exitPerimeter=0;" edge="1" parent="lgj1nc-UiX9Fw6fF2aE0-75">
          <mxGeometry width="50" height="50" relative="1" as="geometry">
            <mxPoint x="10" y="27" as="sourcePoint" />
            <mxPoint x="50" y="27" as="targetPoint" />
          </mxGeometry>
        </mxCell>
        <mxCell id="lgj1nc-UiX9Fw6fF2aE0-78" value="" style="endArrow=none;html=1;strokeWidth=2;exitX=0.25;exitY=0.2;exitDx=0;exitDy=0;exitPerimeter=0;" edge="1" parent="lgj1nc-UiX9Fw6fF2aE0-75">
          <mxGeometry width="50" height="50" relative="1" as="geometry">
            <mxPoint x="10" y="40" as="sourcePoint" />
            <mxPoint x="50" y="40" as="targetPoint" />
          </mxGeometry>
        </mxCell>
        <mxCell id="lgj1nc-UiX9Fw6fF2aE0-79" value="" style="endArrow=none;html=1;strokeWidth=2;exitX=0.25;exitY=0.2;exitDx=0;exitDy=0;exitPerimeter=0;" edge="1" parent="lgj1nc-UiX9Fw6fF2aE0-75">
          <mxGeometry width="50" height="50" relative="1" as="geometry">
            <mxPoint x="10" y="49.80000000000001" as="sourcePoint" />
            <mxPoint x="50" y="50" as="targetPoint" />
          </mxGeometry>
        </mxCell>
        <mxCell id="lgj1nc-UiX9Fw6fF2aE0-80" value="" style="endArrow=none;html=1;strokeWidth=2;exitX=0.25;exitY=0.2;exitDx=0;exitDy=0;exitPerimeter=0;" edge="1" parent="lgj1nc-UiX9Fw6fF2aE0-75">
          <mxGeometry width="50" height="50" relative="1" as="geometry">
            <mxPoint x="10" y="60" as="sourcePoint" />
            <mxPoint x="50" y="60" as="targetPoint" />
          </mxGeometry>
        </mxCell>
        <mxCell id="lgj1nc-UiX9Fw6fF2aE0-81" value="" style="endArrow=none;html=1;strokeWidth=2;exitX=0.25;exitY=0.2;exitDx=0;exitDy=0;exitPerimeter=0;" edge="1" parent="lgj1nc-UiX9Fw6fF2aE0-75">
          <mxGeometry width="50" height="50" relative="1" as="geometry">
            <mxPoint x="10" y="70" as="sourcePoint" />
            <mxPoint x="50" y="70" as="targetPoint" />
          </mxGeometry>
        </mxCell>
        <mxCell id="lgj1nc-UiX9Fw6fF2aE0-82" value="" style="group" vertex="1" connectable="0" parent="lgj1nc-UiX9Fw6fF2aE0-75">
          <mxGeometry x="20" y="10" width="60" height="80" as="geometry" />
        </mxCell>
        <mxCell id="lgj1nc-UiX9Fw6fF2aE0-83" value="" style="verticalLabelPosition=bottom;verticalAlign=top;html=1;shape=card;whiteSpace=wrap;size=20;arcSize=12;strokeWidth=2;" vertex="1" parent="lgj1nc-UiX9Fw6fF2aE0-82">
          <mxGeometry width="60" height="80" as="geometry" />
        </mxCell>
        <mxCell id="lgj1nc-UiX9Fw6fF2aE0-84" value="" style="endArrow=none;html=1;strokeWidth=6;exitX=0.25;exitY=0.2;exitDx=0;exitDy=0;exitPerimeter=0;" edge="1" parent="lgj1nc-UiX9Fw6fF2aE0-82">
          <mxGeometry width="50" height="50" relative="1" as="geometry">
            <mxPoint x="10" y="27" as="sourcePoint" />
            <mxPoint x="50" y="27" as="targetPoint" />
          </mxGeometry>
        </mxCell>
        <mxCell id="lgj1nc-UiX9Fw6fF2aE0-85" value="" style="endArrow=none;html=1;strokeWidth=2;exitX=0.25;exitY=0.2;exitDx=0;exitDy=0;exitPerimeter=0;" edge="1" parent="lgj1nc-UiX9Fw6fF2aE0-82">
          <mxGeometry width="50" height="50" relative="1" as="geometry">
            <mxPoint x="10" y="40" as="sourcePoint" />
            <mxPoint x="50" y="40" as="targetPoint" />
          </mxGeometry>
        </mxCell>
        <mxCell id="lgj1nc-UiX9Fw6fF2aE0-86" value="" style="endArrow=none;html=1;strokeWidth=2;exitX=0.25;exitY=0.2;exitDx=0;exitDy=0;exitPerimeter=0;" edge="1" parent="lgj1nc-UiX9Fw6fF2aE0-82">
          <mxGeometry width="50" height="50" relative="1" as="geometry">
            <mxPoint x="10" y="49.80000000000001" as="sourcePoint" />
            <mxPoint x="50" y="50" as="targetPoint" />
          </mxGeometry>
        </mxCell>
        <mxCell id="lgj1nc-UiX9Fw6fF2aE0-87" value="" style="endArrow=none;html=1;strokeWidth=2;exitX=0.25;exitY=0.2;exitDx=0;exitDy=0;exitPerimeter=0;" edge="1" parent="lgj1nc-UiX9Fw6fF2aE0-82">
          <mxGeometry width="50" height="50" relative="1" as="geometry">
            <mxPoint x="10" y="60" as="sourcePoint" />
            <mxPoint x="50" y="60" as="targetPoint" />
          </mxGeometry>
        </mxCell>
        <mxCell id="lgj1nc-UiX9Fw6fF2aE0-88" value="" style="endArrow=none;html=1;strokeWidth=2;exitX=0.25;exitY=0.2;exitDx=0;exitDy=0;exitPerimeter=0;" edge="1" parent="lgj1nc-UiX9Fw6fF2aE0-82">
          <mxGeometry width="50" height="50" relative="1" as="geometry">
            <mxPoint x="10" y="70" as="sourcePoint" />
            <mxPoint x="50" y="70" as="targetPoint" />
          </mxGeometry>
        </mxCell>
        <mxCell id="lgj1nc-UiX9Fw6fF2aE0-89" value="" style="group" vertex="1" connectable="0" parent="1">
          <mxGeometry x="360" y="250" width="60" height="80" as="geometry" />
        </mxCell>
        <mxCell id="lgj1nc-UiX9Fw6fF2aE0-90" value="" style="verticalLabelPosition=bottom;verticalAlign=top;html=1;shape=card;whiteSpace=wrap;size=20;arcSize=12;strokeWidth=2;" vertex="1" parent="lgj1nc-UiX9Fw6fF2aE0-89">
          <mxGeometry width="60" height="80" as="geometry" />
        </mxCell>
        <mxCell id="lgj1nc-UiX9Fw6fF2aE0-91" value="" style="endArrow=none;html=1;strokeWidth=6;exitX=0.25;exitY=0.2;exitDx=0;exitDy=0;exitPerimeter=0;" edge="1" parent="lgj1nc-UiX9Fw6fF2aE0-89">
          <mxGeometry width="50" height="50" relative="1" as="geometry">
            <mxPoint x="10" y="27" as="sourcePoint" />
            <mxPoint x="50" y="27" as="targetPoint" />
          </mxGeometry>
        </mxCell>
        <mxCell id="lgj1nc-UiX9Fw6fF2aE0-92" value="" style="endArrow=none;html=1;strokeWidth=2;exitX=0.25;exitY=0.2;exitDx=0;exitDy=0;exitPerimeter=0;" edge="1" parent="lgj1nc-UiX9Fw6fF2aE0-89">
          <mxGeometry width="50" height="50" relative="1" as="geometry">
            <mxPoint x="10" y="40" as="sourcePoint" />
            <mxPoint x="50" y="40" as="targetPoint" />
          </mxGeometry>
        </mxCell>
        <mxCell id="lgj1nc-UiX9Fw6fF2aE0-93" value="" style="endArrow=none;html=1;strokeWidth=2;exitX=0.25;exitY=0.2;exitDx=0;exitDy=0;exitPerimeter=0;" edge="1" parent="lgj1nc-UiX9Fw6fF2aE0-89">
          <mxGeometry width="50" height="50" relative="1" as="geometry">
            <mxPoint x="10" y="49.80000000000001" as="sourcePoint" />
            <mxPoint x="50" y="50" as="targetPoint" />
          </mxGeometry>
        </mxCell>
        <mxCell id="lgj1nc-UiX9Fw6fF2aE0-94" value="" style="endArrow=none;html=1;strokeWidth=2;exitX=0.25;exitY=0.2;exitDx=0;exitDy=0;exitPerimeter=0;" edge="1" parent="lgj1nc-UiX9Fw6fF2aE0-89">
          <mxGeometry width="50" height="50" relative="1" as="geometry">
            <mxPoint x="10" y="60" as="sourcePoint" />
            <mxPoint x="50" y="60" as="targetPoint" />
          </mxGeometry>
        </mxCell>
        <mxCell id="lgj1nc-UiX9Fw6fF2aE0-95" value="" style="endArrow=none;html=1;strokeWidth=2;exitX=0.25;exitY=0.2;exitDx=0;exitDy=0;exitPerimeter=0;" edge="1" parent="lgj1nc-UiX9Fw6fF2aE0-89">
          <mxGeometry width="50" height="50" relative="1" as="geometry">
            <mxPoint x="10" y="70" as="sourcePoint" />
            <mxPoint x="50" y="70" as="targetPoint" />
          </mxGeometry>
        </mxCell>
        <mxCell id="lgj1nc-UiX9Fw6fF2aE0-96" value="Page tree" style="text;html=1;strokeColor=none;fillColor=none;align=center;verticalAlign=middle;whiteSpace=wrap;rounded=0;fontFamily=GT Walsheim;fontStyle=1" vertex="1" parent="1">
          <mxGeometry x="30" width="160" height="40" as="geometry" />
        </mxCell>
        <mxCell id="lgj1nc-UiX9Fw6fF2aE0-99" value="Homepage" style="text;html=1;strokeColor=none;fillColor=none;align=center;verticalAlign=middle;whiteSpace=wrap;rounded=0;fontFamily=GT Walsheim;fontStyle=2;fontColor=#F05A22;" vertex="1" parent="1">
          <mxGeometry x="90" y="40" width="160" height="40" as="geometry" />
        </mxCell>
        <mxCell id="lgj1nc-UiX9Fw6fF2aE0-100" value="Page" style="text;html=1;strokeColor=none;fillColor=none;align=center;verticalAlign=middle;whiteSpace=wrap;rounded=0;fontFamily=GT Walsheim;fontStyle=2;fontColor=#F05A22;" vertex="1" parent="1">
          <mxGeometry x="65" y="275" width="160" height="40" as="geometry" />
        </mxCell>
        <mxCell id="lgj1nc-UiX9Fw6fF2aE0-101" value="" style="rounded=0;whiteSpace=wrap;html=1;strokeWidth=1;fontFamily=GT Walsheim;fontColor=#F05A22;fillColor=none;strokeColor=#F05A22;" vertex="1" parent="1">
          <mxGeometry x="10" y="36" width="200" height="47" as="geometry" />
        </mxCell>
        <mxCell id="lgj1nc-UiX9Fw6fF2aE0-106" value="Blog post" style="text;html=1;strokeColor=none;fillColor=none;align=center;verticalAlign=middle;whiteSpace=wrap;rounded=0;fontFamily=GT Walsheim;fontStyle=2;fontColor=#F05A22;" vertex="1" parent="1">
          <mxGeometry x="320" y="10" width="120" height="40" as="geometry" />
        </mxCell>
        <mxCell id="lgj1nc-UiX9Fw6fF2aE0-108" value="Article" style="text;html=1;strokeColor=none;fillColor=none;align=center;verticalAlign=middle;whiteSpace=wrap;rounded=0;fontFamily=GT Walsheim;fontStyle=2;fontColor=#F05A22;" vertex="1" parent="1">
          <mxGeometry x="450" y="80" width="120" height="40" as="geometry" />
        </mxCell>
        <mxCell id="lgj1nc-UiX9Fw6fF2aE0-110" value="..." style="text;html=1;strokeColor=none;fillColor=none;align=center;verticalAlign=middle;whiteSpace=wrap;rounded=0;fontFamily=GT Walsheim;fontStyle=2;fontColor=#F05A22;" vertex="1" parent="1">
          <mxGeometry x="310" y="190" width="120" height="40" as="geometry" />
        </mxCell>
        <mxCell id="lgj1nc-UiX9Fw6fF2aE0-114" value="..." style="text;html=1;strokeColor=none;fillColor=none;align=center;verticalAlign=middle;whiteSpace=wrap;rounded=0;fontFamily=GT Walsheim;fontStyle=2;" vertex="1" parent="1">
          <mxGeometry x="250" y="200" width="20" height="40" as="geometry" />
        </mxCell>
        <mxCell id="lgj1nc-UiX9Fw6fF2aE0-115" value="..." style="text;html=1;strokeColor=none;fillColor=none;align=center;verticalAlign=middle;whiteSpace=wrap;rounded=0;fontFamily=GT Walsheim;fontStyle=2;" vertex="1" parent="1">
          <mxGeometry x="250" y="260" width="20" height="40" as="geometry" />
        </mxCell>
      </root>
    </mxGraphModel>
  </diagram>
</mxfile>
